Coordinates
version=1
nRows=18
nColumns=63
inDegrees=yes

Units are S.I. units (second, meters, Newtons, ...)
If the header above contains a line with 'inDegrees', this indicates whether rotational values are in degrees (yes) or radians (no).

endheader
time	pelvis_tilt	pelvis_list	pelvis_rotation	pelvis_tx	pelvis_ty	pelvis_tz	hip_flexion_r	hip_adduction_r	hip_rotation_r	knee_angle_r	knee_angle_r_beta	ankle_angle_r	subtalar_angle_r	mtp_angle_r	hip_flexion_l	hip_adduction_l	hip_rotation_l	knee_angle_l	knee_angle_l_beta	ankle_angle_l	subtalar_angle_l	mtp_angle_l	L5_S1_Flex_Ext	L5_S1_Lat_Bending	L5_S1_axial_rotation	L4_L5_Flex_Ext	L4_L5_Lat_Bending	L4_L5_axial_rotation	L3_L4_Flex_Ext	L3_L4_Lat_Bending	L3_L4_axial_rotation	L2_L3_Flex_Ext	L2_L3_Lat_Bending	L2_L3_axial_rotation	L1_L2_Flex_Ext	L1_L2_Lat_Bending	L1_L2_axial_rotation	L1_T12_Flex_Ext	L1_T12_Lat_Bending	L1_T12_axial_rotation	Abs_r3	Abs_r2	Abs_r1	Abs_t1	Abs_t2	neck_flexion	neck_bending	neck_rotation	arm_flex_r	arm_add_r	arm_rot_r	elbow_flex_r	pro_sup_r	wrist_flex_r	wrist_dev_r	arm_flex_l	arm_add_l	arm_rot_l	elbow_flex_l	pro_sup_l	wrist_flex_l	wrist_dev_l
0.779661	2.628644	-2.663305	90.932729	0.313238	1.008653	0.462594	2.363776	-4.214381	-10.033303	8.790189	0.153418	24.495217	12.601248	0.000000	2.694978	2.709816	4.933698	6.377615	0.111310	18.435964	-12.361805	0.000000	0.130224	-0.080601	-1.381847	0.241839	-0.107200	-1.468213	0.213945	-0.195974	-1.468213	0.148833	-0.195974	-1.209116	0.120926	-0.164362	-1.122751	0.074410	-0.124852	-1.036385	0.930176	-0.911779	-7.685420	0.000000	0.000000	27.231556	10.550272	9.711325	25.103628	11.827656	182.560655	0.310337	4.016231	2.496664	-23.047241	17.450320	-10.049549	84.438319	26.096768	73.669792	-11.570314	-8.989569
0.796610	2.397032	-2.584701	91.121917	0.313633	1.008591	0.463031	2.263066	-4.427119	-10.228210	8.758902	0.152872	24.585155	12.738842	0.000000	2.705312	2.913769	4.595899	6.389746	0.111522	18.718426	-11.803354	0.000000	0.120930	-0.122244	-1.481469	0.224580	-0.162585	-1.574061	0.198677	-0.297224	-1.574061	0.138211	-0.297224	-1.296285	0.112296	-0.249280	-1.203694	0.069100	-0.189356	-1.111102	0.863794	-1.382849	-8.239486	0.000000	0.000000	27.164819	10.917089	9.695731	25.817142	11.831749	179.069890	0.310211	2.173425	6.348056	-23.745634	17.596388	-10.715661	87.626850	25.128192	74.595371	-14.071494	-9.685775
0.813559	2.154920	-2.503912	91.329313	0.314089	1.008478	0.463489	2.153606	-4.635726	-10.327664	8.694962	0.151756	24.692319	12.755464	0.000000	2.722009	3.125418	4.238527	6.415026	0.111963	19.000985	-11.226719	0.000000	0.111953	-0.165623	-1.580353	0.207909	-0.220278	-1.679125	0.183928	-0.402695	-1.679125	0.127952	-0.402695	-1.382809	0.103960	-0.337738	-1.284037	0.063970	-0.256550	-1.185265	0.799672	-1.873557	-8.789448	0.000000	0.000000	27.092976	11.280513	9.694432	26.490287	11.913203	176.289848	0.307002	0.776550	9.774372	-24.201020	17.507526	-11.424669	89.820970	24.318730	75.719834	-16.201670	-10.113577
0.830508	1.923060	-2.418576	91.531804	0.314601	1.008334	0.463927	2.045599	-4.831454	-10.450542	8.621977	0.150482	24.851930	12.855476	0.000000	2.726765	3.324861	3.912659	6.434766	0.112308	19.249821	-10.699122	0.000000	0.103072	-0.207866	-1.671866	0.191415	-0.276462	-1.776358	0.169337	-0.505406	-1.776358	0.117801	-0.505406	-1.462883	0.095712	-0.423881	-1.358391	0.058895	-0.321985	-1.253900	0.736231	-2.351426	-9.298419	0.000000	0.000000	27.013415	11.620714	9.671933	27.131064	12.072499	174.234777	0.300779	-0.034105	12.899195	-24.410856	17.210955	-12.171554	91.379740	23.652605	75.789947	-18.024212	-10.498346
0.847458	1.704025	-2.334983	91.713035	0.315189	1.008157	0.464300	1.945102	-5.000822	-10.433043	8.534821	0.148961	25.044530	12.829708	0.000000	2.723689	3.508428	3.596071	6.454462	0.112652	19.461945	-10.218794	0.000000	0.095038	-0.248843	-1.749754	0.176495	-0.330961	-1.859114	0.156138	-0.605036	-1.859114	0.108619	-0.605036	-1.531035	0.088252	-0.507440	-1.421676	0.054305	-0.385457	-1.312316	0.678848	-2.814959	-9.731609	0.000000	0.000000	26.939125	11.938641	9.626127	27.739621	12.297889	172.872255	0.292034	-0.310136	15.851459	-24.416318	16.618048	-12.916015	91.667734	23.215419	75.280073	-19.269105	-10.504998
0.864407	1.507865	-2.260875	91.867962	0.315835	1.007945	0.464558	1.858465	-5.136518	-10.290366	8.438825	0.147285	25.272946	12.701362	0.000000	2.713646	3.667053	3.315881	6.470293	0.112928	19.631630	-9.814319	0.000000	0.089323	-0.287447	-1.809655	0.165882	-0.382305	-1.922758	0.146749	-0.698899	-1.922758	0.102087	-0.698899	-1.583448	0.082946	-0.586162	-1.470345	0.051039	-0.445255	-1.357241	0.638027	-3.251658	-10.064758	0.000000	0.000000	26.871834	12.230864	9.524952	28.321148	12.567257	172.102706	0.281126	-0.119869	18.773610	-24.304715	15.734609	-13.632465	90.597799	23.025065	74.004579	-19.830062	-10.087885
0.881356	1.341198	-2.205904	91.977280	0.316559	1.007711	0.464683	1.793538	-5.228451	-9.999542	8.328836	0.145366	25.520728	12.436704	0.000000	2.703763	3.791627	3.052146	6.481136	0.113117	19.760635	-9.476450	0.000000	0.087489	-0.322935	-1.851802	0.162476	-0.429504	-1.967540	0.143736	-0.785185	-1.967540	0.099991	-0.785185	-1.620327	0.081243	-0.658530	-1.504589	0.049991	-0.500227	-1.388851	0.624927	-3.653109	-10.299167	0.000000	0.000000	26.806416	12.497575	9.359844	28.893463	12.895030	172.096193	0.267136	0.727689	21.539761	-23.931278	14.536198	-14.291347	87.919273	23.127328	72.362466	-19.736888	-9.271975
0.898305	1.170327	-2.137496	92.055805	0.317379	1.007539	0.464724	1.729410	-5.319289	-9.620291	8.240597	0.143826	25.795949	12.108001	0.000000	2.661200	3.916174	2.825277	6.482071	0.113133	19.832917	-9.207303	0.000000	0.084375	-0.360055	-1.873173	0.156693	-0.478873	-1.990247	0.138620	-0.875438	-1.990247	0.096433	-0.875438	-1.639027	0.078351	-0.734224	-1.521953	0.048212	-0.557725	-1.404880	0.602685	-4.073014	-10.418029	0.000000	0.000000	26.738629	12.738573	9.108054	29.477485	13.245994	172.215527	0.252721	1.068724	24.859835	-23.896187	13.177931	-14.943000	84.140435	23.439169	69.907769	-18.833598	-8.087137
0.915254	0.996872	-2.045250	92.119729	0.318270	1.007467	0.464722	1.649044	-5.403715	-9.157487	8.165237	0.142510	26.068772	11.667412	0.000000	2.581614	4.036777	2.621849	6.478898	0.113078	19.860750	-8.965035	0.000000	0.078381	-0.398094	-1.889722	0.145561	-0.529465	-2.007830	0.128772	-0.967926	-2.007830	0.089581	-0.967926	-1.653507	0.072784	-0.811793	-1.535399	0.044787	-0.616647	-1.417291	0.559865	-4.503318	-10.510066	0.000000	0.000000	26.640910	12.994370	8.878365	30.091229	13.662019	172.674322	0.238413	1.322778	28.068881	-23.902558	11.637834	-15.559861	79.114880	23.988130	67.368822	-17.210239	-6.547661
0.932203	0.809137	-1.935437	92.132449	0.319327	1.007503	0.464698	1.564721	-5.493006	-8.621422	8.103964	0.141441	26.336985	11.191323	0.000000	2.471752	4.159774	2.373583	6.469842	0.112920	19.856468	-8.716798	0.000000	0.071538	-0.438444	-1.907444	0.132853	-0.583130	-2.026659	0.117530	-1.066033	-2.026659	0.081761	-1.066033	-1.669013	0.066430	-0.894075	-1.549798	0.040877	-0.679150	-1.430583	0.510989	-4.959765	-10.608630	0.000000	0.000000	26.491093	13.249403	8.673399	30.760377	14.183648	172.333861	0.229560	1.309296	32.444961	-23.950887	9.812999	-16.164954	72.490265	24.769940	65.792694	-14.898345	-4.802720
0.949153	0.603755	-1.790434	92.102202	0.320498	1.007665	0.464711	1.457547	-5.593509	-8.028621	8.052979	0.140551	26.586425	10.687338	0.000000	2.318576	4.291921	2.101946	6.455500	0.112670	19.825050	-8.466963	0.000000	0.061114	-0.480809	-1.930941	0.113494	-0.639476	-2.051625	0.100404	-1.169039	-2.051625	0.069847	-1.169039	-1.689574	0.056750	-0.980465	-1.568890	0.034920	-0.744773	-1.448206	0.436529	-5.439006	-10.739315	0.000000	0.000000	26.280412	13.501330	8.541533	31.515886	14.826725	171.494126	0.227237	1.268869	37.153264	-24.002418	7.870681	-16.761535	65.097308	25.717391	65.333395	-12.319142	-3.098855
0.966102	0.381550	-1.600248	92.027818	0.321744	1.007958	0.464786	1.319255	-5.708602	-7.402392	8.015442	0.139896	26.816552	10.178275	0.000000	2.117831	4.436252	1.801372	6.442744	0.112447	19.773028	-8.226921	0.000000	0.045558	-0.524140	-1.962743	0.084606	-0.697106	-2.085415	0.074848	-1.274395	-2.085415	0.052069	-1.274395	-1.717400	0.042305	-1.068827	-1.594729	0.026032	-0.811893	-1.472057	0.325419	-5.929179	-10.916189	0.000000	0.000000	26.008351	13.705205	8.492243	32.387359	15.599710	170.095379	0.231588	1.212919	42.122037	-24.050253	5.904768	-17.336955	57.506559	26.758681	66.051883	-9.869949	-1.531075
0.983051	0.156819	-1.360317	91.924140	0.323015	1.008360	0.464945	1.142603	-5.826714	-6.780859	7.990528	0.139461	27.019238	9.682794	0.000000	1.866515	4.579327	1.468831	6.429326	0.112213	19.722777	-7.954478	0.000000	0.023513	-0.566157	-2.008154	0.043666	-0.752989	-2.133664	0.038629	-1.376555	-2.133664	0.026873	-1.376555	-1.757135	0.021834	-1.154508	-1.631626	0.013435	-0.876978	-1.506116	0.167951	-6.404485	-11.168753	0.000000	0.000000	25.666953	13.923170	8.646827	33.401213	16.512367	168.315960	0.239599	1.141815	47.160431	-24.095058	4.033720	-17.813113	50.616147	27.781154	67.626271	-8.075450	-0.047328
1.000000	-0.085852	-1.082693	91.774341	0.324321	1.008853	0.465180	0.943366	-5.968245	-6.162414	7.984896	0.139363	27.196119	9.237930	0.000000	1.577995	4.739888	1.091373	6.417485	0.112006	19.660439	-7.680515	0.000000	-0.002733	-0.609649	-2.059577	-0.005076	-0.810833	-2.188300	-0.004490	-1.482300	-2.188300	-0.003124	-1.482300	-1.802130	-0.002538	-1.243196	-1.673406	-0.001562	-0.944346	-1.544683	-0.019523	-6.896470	-11.454748	0.000000	0.000000	25.278622	14.099048	8.839556	34.523429	17.554626	166.105190	0.250230	1.067475	52.081649	-24.137494	2.290034	-18.129718	44.788815	28.631896	69.863624	-7.076782	1.287688
1.016949	-0.352232	-0.770393	91.584985	0.325658	1.009404	0.465473	0.719372	-6.140521	-5.569129	7.997584	0.139584	27.349479	8.839975	0.000000	1.251397	4.926611	0.702953	6.400924	0.111717	19.576211	-7.435700	0.000000	-0.032553	-0.654945	-2.120385	-0.060454	-0.871077	-2.252909	-0.053481	-1.592433	-2.252909	-0.037204	-1.592433	-1.855337	-0.030228	-1.335563	-1.722813	-0.018601	-1.014509	-1.590289	-0.232521	-7.408866	-11.792946	0.000000	0.000000	24.845676	14.257721	9.134477	35.746312	18.736363	163.730882	0.259395	0.987972	56.682568	-24.183633	0.661329	-18.385248	39.658309	29.425514	72.731516	-6.616597	2.610000
1.033898	-0.636112	-0.429823	91.370018	0.327035	1.009978	0.465828	0.471142	-6.336683	-5.023930	8.027422	0.140105	27.481227	8.496544	0.000000	0.899042	5.131110	0.305120	6.389323	0.111515	19.481558	-7.204095	0.000000	-0.065153	-0.700787	-2.192971	-0.120996	-0.932047	-2.330032	-0.107040	-1.703895	-2.330032	-0.074464	-1.703895	-1.918850	-0.060501	-1.429046	-1.781789	-0.037229	-1.085520	-1.644728	-0.465384	-7.927448	-12.196648	0.000000	0.000000	24.368885	14.384962	9.570260	37.044584	20.057105	161.292531	0.266651	0.906385	60.885812	-24.230547	-0.825410	-18.642603	35.157069	30.232728	75.924178	-6.667052	3.894236
1.050847	-0.937627	-0.067125	91.146522	0.328428	1.010569	0.466242	0.199826	-6.558967	-4.546880	8.073990	0.140918	27.576457	8.205489	0.000000	0.524854	5.354090	-0.105748	6.375592	0.111275	19.384777	-6.949597	0.000000	-0.099564	-0.746393	-2.281076	-0.184901	-0.992703	-2.423643	-0.163574	-1.814781	-2.423643	-0.113792	-1.814781	-1.995942	-0.092455	-1.522045	-1.853374	-0.056891	-1.156163	-1.710807	-0.711178	-8.443351	-12.686661	0.000000	0.000000	23.844695	14.516689	10.208079	38.393312	21.519903	158.987437	0.269976	0.826117	64.581087	-24.279736	-2.187315	-18.919574	31.114274	31.002108	79.068922	-6.829446	4.906974
1.067797	-1.263202	0.312036	90.910831	0.329860	1.011186	0.466731	-0.085585	-6.816945	-4.169611	8.138261	0.142039	27.644713	8.021560	0.000000	0.135770	5.611082	-0.405811	6.353208	0.110884	19.223918	-6.880971	0.000000	-0.134452	-0.792517	-2.379066	-0.249691	-1.054048	-2.527758	-0.220891	-1.926927	-2.527758	-0.153665	-1.926927	-2.081683	-0.124852	-1.616102	-1.932991	-0.076826	-1.227610	-1.784300	-0.960377	-8.965116	-13.231652	0.000000	0.000000	23.302398	14.558736	10.913599	39.752191	23.115352	156.936672	0.269463	0.754963	67.577182	-24.332470	-3.382646	-19.210345	27.645604	31.762730	81.970515	-7.133614	5.851550
